<?xml version="1.0" ?><svg style="enable-background:new 0 0 48 48;" version="1.1" viewBox="0 0 48 48" xml:space="preserve" xmlns="http://www.w3.org/2000/svg" xmlns:xlink="http://www.w3.org/1999/xlink"><g id="Padding__x26__Artboard"/><g id="Icons"><path d="M37.47339,13.02502V34.935c0,1.39001-1.13,2.52002-2.52002,2.52002l-7.06,0.03998v-2.72998   l-0.01001-5.91003h3.35004l0.57001-4.07996l-0.61005-0.01001h-0.09998L30.74341,24.755l-2.88-0.04999v-0.12l0.01996-3.07001   c0-0.03003,0-0.34998,0.21002-0.66003c0-0.00995,0.01001-0.00995,0.01001-0.01996l0.01001-0.01001   c0.02997-0.03998,0.04999-0.08002,0.07996-0.10999c0,0,0,0,0.01001-0.01001c0.23999-0.28003,0.66003-0.52002,1.39001-0.53003   c0.47998-0.00995,0.85999-0.00995,1.16998-0.00995h0.45001c0.44,0,0.59003,0.00995,0.59003,0.00995l0.10999-3.83997h-0.04999   c-0.42004,0-0.85004-0.01001-1.27002-0.01001c-0.22998,0-0.45001-0.01001-0.67999-0.01001   c-0.54999-0.02002-1.10004-0.04999-1.65002,0.01001c-0.52997,0.06-1.06,0.17999-1.56,0.35999   c-0.29999,0.12-0.59998,0.26001-0.87,0.42999c-0.26001,0.17004-0.51001,0.36005-0.72998,0.58002   c-0.23004,0.22998-0.41998,0.47998-0.59003,0.75c-0.17999,0.28998-0.32001,0.59003-0.44,0.90997   c-0.13,0.36005-0.21997,0.72003-0.27997,1.09003c-0.08002,0.40997-0.13,0.84003-0.13,1.26001v3h-3.5l-0.10004,4.14996l3.56,0.02002   v8.58002H13.0434c-1.39001,0-2.52002-1.13-2.52002-2.52002V13.02502c0-1.39001,1.13-2.52002,2.52002-2.52002h21.90997   C36.34339,10.505,37.47339,11.63501,37.47339,13.02502z" style="fill:#FFFFFF;"/><path d="M37.46991,13.03998v21.89001c0,1.39001-1.13,2.52002-2.52002,2.52002l-6.66998,0.03998v-1.66998   l-0.02002-6.49005h3.67999l0.63-4.47998l-0.66998-0.01001h-0.10999l0.01001-0.06v-0.01001l-0.61005-0.00995H31.0899L30.8299,24.75   h-0.08997l-2.5-0.03003l-0.38-0.01001v-0.12l0.01996-3.07996c0-0.02002,0-0.35004,0.21002-0.66003   c0-0.01001,0.01001-0.01001,0.01001-0.02002h0.01001c0.02997-0.02997,0.04999-0.06995,0.07996-0.10999c0,0,0,0,0.01001-0.01001   c0.10004-0.10999,0.22998-0.22998,0.40002-0.31995c0,0,0,0,0.01996-0.01001c0.09003-0.04004,0.20001-0.09003,0.34003-0.12   c0.16998-0.05005,0.38-0.09003,0.63-0.09003c0.47998-0.01001,0.85999-0.01001,1.16998-0.01001h0.45001   c0.44,0,0.59003,0.01001,0.59003,0.01001l0.00995-0.38h0.11005c0.47998,0,0.64996,0.01001,0.64996,0.01001l0.12-4.22003h-0.04999   c-0.46997,0-0.94-0.00995-1.39996-0.00995c-0.25,0-0.49005-0.01001-0.75-0.01001c-0.60004-0.02002-1.20001-0.04999-1.81006,0.01001   c-0.57996,0.07001-1.15997,0.19995-1.70996,0.39996c-0.33002,0.13-0.66003,0.28003-0.96002,0.47003   c-0.27997,0.19-0.56,0.38995-0.79999,0.63995c-0.25,0.25-0.46002,0.52002-0.65002,0.82001c-0.19,0.32001-0.34998,0.65002-0.47998,1   c-0.14001,0.39001-0.23999,0.79004-0.31,1.20001c-0.08002,0.45001-0.14001,0.91998-0.14001,1.38V24.62h-2.98999v0.08997h-0.47998   v0.06l-0.10004,4.08002l3.56,0.02002v8.58002H13.03992c-1.38,0-2.51001-1.13-2.51001-2.52002V13.03998   c0-1.39996,1.13-2.52997,2.51001-2.52997h21.90997C36.3399,10.51001,37.46991,11.64001,37.46991,13.03998z" style="fill:#FFFFFF;"/><path d="M36.25989,14.01996v19.94c0,1.26001-1.02997,2.28003-2.28998,2.28003l-5.69,0.04999h-0.39001   v-1.52002l-0.01001-5.91998h3.35004l0.56-4.01001l0.01001-0.06l-0.61005-0.01001H31.0899v-0.00995l0.01001-0.04004v-0.01001   l-0.56-0.00995l-0.32001-0.02002h-0.09003l-2.26996-0.02002l-0.35004-0.01001v-0.10999l0.02002-2.81c0-0.01001,0-0.31,0.19-0.58997   c0-0.01001,0.01001-0.01001,0.01001-0.03003h0.01001c0.09998-0.13,0.23999-0.28003,0.44995-0.39001c0,0,0,0,0.01001-0.01001   c0.09003-0.03998,0.19-0.07996,0.31-0.10999c0.16003-0.06,0.35004-0.08002,0.58002-0.08002   c0.42999-0.00995,0.77997-0.00995,1.06-0.00995h0.40997c0.40002,0,0.54004,0.00995,0.54004,0.00995l0.01001-0.34998h0.09998   c0.44,0,0.59003,0,0.59003,0l0.00995-0.38l0.10004-3.45001h-0.04999c-0.42004,0-0.85004-0.01001-1.27002-0.01001   c-0.22998,0-0.45001-0.00995-0.67999-0.00995c-0.54999-0.03003-1.10004-0.05005-1.65002,0.00995   c-0.52997,0.06006-1.06,0.18005-1.56,0.35004c-0.29999,0.12-0.59998,0.27002-0.87,0.42999   c-0.26001,0.17999-0.51001,0.37-0.72998,0.59003c-0.23004,0.21997-0.42004,0.46997-0.59003,0.75   c-0.17999,0.27997-0.32001,0.58997-0.44,0.89996c-0.13,0.37-0.21997,0.72998-0.27997,1.10004   c-0.08002,0.39996-0.13,0.83997-0.13,1.25995v2.86005h-2.72003v0.07996h-0.44v0.06h-0.33997v0.06l-0.10004,4.08002l3.56,0.02002   v7.37H14.0199c-1.26001,0-2.28998-1.02002-2.28998-2.28003v-19.94c0-1.27997,1.02997-2.29999,2.28998-2.29999h19.95001   C35.22992,11.71997,36.25989,12.73999,36.25989,14.01996z" style="fill:#B9D4F8;"/><path d="M34.75336,15.245v17.48999c0,1.11005-0.88995,2.01001-2.00995,2.01001l-4.85004,0.02002   l-0.01001-5.91003h3.35004l0.57001-4.07996l-0.61005-0.01001l0.01001-0.04999H31.1034l-0.88-0.02002V24.685l0.01001-0.06   l-2.37-0.03998l0.01996-3.07001c0-0.03003,0-0.34998,0.21002-0.66003c0.09998-0.06,0.25-0.15997,0.41998-0.25995   c0.16003-0.09003,0.33002-0.17004,0.45001-0.19c0.79999-0.13,0.98999-0.26001,1.79999-0.23999h0.45001   c0.44,0,0.59003,0.00995,0.59003,0.00995l0.10999-3.83997h-0.04999c-0.42004,0-0.85004-0.01001-1.27002-0.01001   c-0.22998,0-0.45001-0.01001-0.67999-0.01001c-0.54999-0.02002-1.10004-0.04999-1.65002,0.01001   c-0.52997,0.06-1.06,0.17999-1.56,0.35999c-0.29999,0.12-0.59998,0.26001-0.87,0.42999   c-0.26001,0.17004-0.51001,0.36005-0.72998,0.58002c-0.23004,0.22998-0.41998,0.47998-0.59003,0.75   c-0.17999,0.28998-0.32001,0.59003-0.44,0.90997c-0.13,0.36005-0.21997,0.72003-0.27997,1.09003   c-0.08002,0.40997-0.13,0.84003-0.13,1.26001V24.565h-2.72003v0.09003h-0.47998v0.04999h-0.29999l-0.10004,4.14996l3.56,0.02002   v5.87h-8.37c-1.10999,0-2.00995-0.89996-2.00995-2.01001V15.245c0-1.12,0.89996-2.01001,2.00995-2.01001h17.49005   C33.86341,13.23499,34.75336,14.125,34.75336,15.245z" style="fill:#659BDB;"/><path d="   M23.62662,37.4599v-8.58l-3.56-0.02l0.1-4.15h3.5v-3c0-0.42054,0.05134-0.84992,0.12314-1.26374   c0.0642-0.37007,0.15594-0.73596,0.28386-1.08931c0.11527-0.3184,0.26019-0.62645,0.43889-0.91429   c0.16738-0.2696,0.36431-0.52076,0.58845-0.7455c0.22091-0.22151,0.46759-0.41668,0.73252-0.58293   c0.27443-0.17221,0.56774-0.3133,0.87112-0.42659c1.04827-0.39146,2.10678-0.40007,3.20894-0.37667   c0.22707,0.00482,0.45415,0.00967,0.68125,0.01258c0.42203,0.00542,0.84406,0.01043,1.26609,0.01502   c0.01623,0.00018,0.03247,0.00035,0.0487,0.00053l-0.10296,3.8409c0,0-0.49-0.02-2.21,0c-1.69,0.02-1.71,1.28-1.71,1.34l-0.02,3.19   l3.94,0.07l-0.57,4.08h-3.35l0.00802,8.63057l7.06198-0.03057c1.39,0,2.52-1.13,2.52-2.52v-21.91c0-1.39-1.13-2.52-2.52-2.52   h-21.91c-1.39,0-2.52,1.13-2.52,2.52v21.91c0,1.39,1.13,2.52,2.52,2.52H23.62662z" style="fill:none;stroke:#1B4A9A;stroke-width:0.7;stroke-linecap:round;stroke-linejoin:round;stroke-miterlimit:10;"/><line style="fill:none;stroke:#1B4A9A;stroke-width:0.7;stroke-linecap:round;stroke-linejoin:round;stroke-miterlimit:10;" x1="13.24072" x2="13.24072" y1="15.49494" y2="25.71976"/><line style="fill:none;stroke:#1B4A9A;stroke-width:0.7;stroke-linecap:round;stroke-linejoin:round;stroke-miterlimit:10;" x1="13.24072" x2="13.24072" y1="28.27581" y2="29.80944"/></g></svg>